Coordinates
version=1
nRows=12
nColumns=24
inDegrees=yes

Units are S.I. units (second, meters, Newtons, ...)
Angles are in degrees.

endheader
time	pelvis_tilt	pelvis_list	pelvis_rotation	pelvis_tx	pelvis_ty	pelvis_tz	hip_flexion_r	hip_adduction_r	hip_rotation_r	knee_angle_r	ankle_angle_r	subtalar_angle_r	mtp_angle_r	hip_flexion_l	hip_adduction_l	hip_rotation_l	knee_angle_l	ankle_angle_l	subtalar_angle_l	mtp_angle_l	lumbar_extension	lumbar_bending	lumbar_rotation
      1.25500000	     -8.48404598	     -3.06524290	      1.95631086	      0.11633584	      1.23319989	     -0.81311099	     16.76612943	      9.74040379	      1.84768146	    -11.54971191	      1.80440357	     -6.64194491	      3.62008179	     29.43488977	      4.00410030	      1.23012563	    -64.92654582	     -7.62707536	      0.49265907	     23.61939961	     -4.06823793	      2.32916856	      3.15838428
      1.26000000	     -8.51923972	     -2.90790281	      1.88973949	      0.12139807	      1.23371113	     -0.81292530	     16.29578225	      9.60560737	      1.81360209	    -11.38956397	      2.22005016	     -6.22797083	      3.63716517	     30.08840816	      4.20526700	      1.09142305	    -64.45933475	     -6.81856968	      0.58724795	     23.23022101	     -4.06193685	      2.11883207	      3.34412535
      1.26500000	     -8.55175216	     -2.76662783	      1.80067511	      0.12643603	      1.23418568	     -0.81269936	     15.82431884	      9.50805381	      1.87761587	    -11.22623231	      2.52693188	     -6.10242966	      3.62959325	     30.72011703	      4.35945331	      0.91605405	    -63.89367049	     -6.05642251	      0.47159279	     23.07957921	     -4.06316313	      1.92440238	      3.55910820
      1.27000000	     -8.58740339	     -2.61931687	      1.75043199	      0.13148000	      1.23463319	     -0.81252533	     15.35392069	      9.38360667	      1.89743986	    -11.06018637	      2.88012354	     -5.82087169	      3.59848421	     31.33192187	      4.54678639	      0.81507867	    -63.23953600	     -5.23671615	      0.64420745	     22.71769016	     -4.06034003	      1.71717653	      3.73263208
      1.27500000	     -8.62396031	     -2.47701233	      1.68716660	      0.13651332	      1.23503592	     -0.81232874	     14.89153975	      9.27658317	      1.99138522	    -10.90469901	      3.18267046	     -5.74549085	      3.57389745	     31.92272124	      4.71017764	      0.69138304	    -62.48884535	     -4.50819843	      0.56039287	     22.56255560	     -4.05389049	      1.51131761	      3.94058511
      1.28000000	     -8.64952756	     -2.33792900	      1.64299574	      0.14157720	      1.23543663	     -0.81217304	     14.40726213	      9.16296439	      2.08796572	    -10.73816437	      3.49725377	     -5.59972329	      3.52015138	     32.46027838	      4.88268720	      0.62678657	    -61.63064585	     -3.75855498	      0.66964961	     22.26463908	     -4.04969163	      1.31274837	      4.14834904
      1.28500000	     -8.71067593	     -2.22188241	      1.63168942	      0.14660563	      1.23572844	     -0.81208863	     13.97785145	      9.06458007	      2.19527396	    -10.59183312	      3.76244060	     -5.59660103	      3.48422388	     33.03303493	      5.06451822	      0.62648282	    -60.70585371	     -3.08419392	      0.52666540	     22.11366740	     -4.01992699	      1.14659956	      4.25454977
      1.29000000	     -8.71650526	     -2.09442913	      1.61537822	      0.15172324	      1.23605978	     -0.81196281	     13.46203395	      8.95705219	      2.28462137	    -10.41603835	      4.06463932	     -5.48780957	      3.34900003	     33.49505403	      5.21510066	      0.58821663	    -59.69201786	     -2.35275574	      0.66224086	     21.51640165	     -4.02504955	      0.95430532	      4.41654119
      1.29500000	     -8.77246284	     -1.98560343	      1.61207444	      0.15677197	      1.23626927	     -0.81188856	     13.03568956	      8.86711791	      2.43286749	    -10.29193973	      4.34661680	     -5.54060642	      3.30645155	     34.00180174	      5.38032246	      0.63027219	    -58.59206426	     -1.74662284	      0.46425975	     21.37340874	     -3.99023674	      0.78777244	      4.55385506
      1.30000000	     -8.79866188	     -1.87758877	      1.61251093	      0.16182056	      1.23646785	     -0.81183415	     12.57289167	      8.77628727	      2.59997566	    -10.16208696	      4.62264743	     -5.59891019	      3.24223464	     34.44243187	      5.53401235	      0.68106450	    -57.40625041	     -1.15883929	      0.27734277	     21.16042012	     -3.99194486	      0.62891349	      4.68123147
      1.30500000	     -8.79216915	     -1.76762685	      1.62018110	      0.16691731	      1.23666963	     -0.81178135	     12.05721622	      8.68370579	      2.77084966	    -10.01078322	      4.89767351	     -5.68732815	      3.13239564	     34.80309643	      5.67886152	      0.74059278	    -56.12824519	     -0.61110171	      0.06688401	     20.80483517	     -4.01366369	      0.45995341	      4.82050638
      1.31000000	     -8.78813073	     -1.67385339	      1.65468938	      0.17201124	      1.23682330	     -0.81177912	     11.53297667	      8.60148045	      2.94869932	     -9.83757136	      5.13197491	     -5.81096248	      2.97875148	     35.14082841	      5.83247969	      0.87810132	    -54.78050531	     -0.14539367	     -0.17770041	     20.31493027	     -4.02915614	      0.30419673	      4.96378144
